<svg id="Office" xmlns="http://www.w3.org/2000/svg" viewBox="0 0 1920 1080"><style>.st1{fill:#f1f1f1}.st2{fill:#e5e5e5}.st5{fill:#666}.st7{fill:#d8d8d8}.st8{fill:#cecece}.st9{fill:#afafaf}.st10{fill:#bfbfbf}.st12{fill:#aaa}</style><path id="Floor" fill="#ddd" d="M0 926.5h1920V1080H0z"/><path id="Wall" class="st1" d="M3-.3h1920v926.5H3z"/><path id="XMLID_8_" class="st2" d="M139 0h128v926.3H139z"/><path id="XMLID_10_" class="st2" d="M394.9 0h128v926.3h-128z"/><path id="XMLID_11_" class="st2" d="M644 0h128v926.3H644z"/><path id="XMLID_12_" class="st2" d="M894.3-.1h128v926.3h-128z"/><path id="XMLID_13_" class="st2" d="M1155.4-.1h128v926.3h-128z"/><path id="XMLID_14_" class="st2" d="M1397.1-.1h128v926.3h-128z"/><path id="XMLID_15_" class="st2" d="M1658.2 6.6h128v926.3h-128z"/><g id="Window"><path id="windowBoard" fill="#bababa" d="M55.5 661.2h1805.6v37.5H55.5z"/><path id="windowFrame" fill="#a5a5a5" d="M129.1 95.9h1661.1v565.3H129.1z"/><path id="windowBg_x28_sky_x29_" class="st1" d="M214.2 133.4h1491.7v502.8H214.2z"/><g id="Blinds"><g id="LeftRound"><path id="Connector" class="st5" d="M173.2 146.4H193v9.9h-19.8z"/><ellipse id="Ball" transform="matrix(.9973 -.07282 .07282 .9973 -10.566 11.218)" class="st5" cx="148.6" cy="150.5" rx="30.6" ry="14.9"/></g><g id="RightRound"><ellipse id="Ball_1_" transform="rotate(10.241 1767.77 155.546)" class="st5" cx="1767.6" cy="155.5" rx="30.6" ry="14.9"/><path id="Connector_1_" class="st5" d="M1722.2 149.3h19.8v9.9h-19.8z"/></g><path id="BlindTop" class="st5" d="M193 133.4h1529.2v31.9H193z"/><path id="BlindLower" fill="#828282" d="M202.7 165.4h1509.7v125H202.7z"/></g><g id="Houses"><path id="House_1" class="st7" d="M214.2 378.6h192.7v257.6H214.2z"/><path id="House_2" class="st7" d="M406.9 427.9h69.4v208.3h-69.4z"/><path id="House_3" class="st7" d="M476.3 309.8h265.3v326.4H476.3z"/><path id="House_4" class="st7" d="M741.6 355.7h187.5v280.6H741.6z"/><path id="House_5" class="st7" d="M918 398.7h91.7v237.5H918z"/><path id="House_6" class="st7" d="M995.8 348.7H1243v287.5H995.8z"/><path id="House_7" class="st7" d="M1231.9 378.6h109.7v257.6h-109.7z"/><path id="House_8" class="st7" d="M1341.6 427.9h70.8v208.3h-70.8z"/><path id="House_9" class="st7" d="M1402.7 384.8h116.7v251.4h-116.7z"/><path id="House_10" class="st7" d="M1486.1 368.2h118.1v268.1h-118.1z"/><path id="House_11" class="st7" d="M1604.1 409.8h101.7v226.4h-101.7z"/></g></g><g id="Table"><path id="Leg" class="st8" d="M484.7 679.3h41.7v318.1h-41.7z"/><path id="Table_1_" class="st8" d="M430.5 664h1426.4v22.2H430.5z"/><g id="Cabinet"><path id="Bg" class="st8" d="M1218 679.3h618.1v318.1H1218z"/><path id="Gap_1_" class="st9" d="M1218 891.8h615.3v16.7H1218z"/><path id="Gap" class="st9" d="M1218 775.1h615.3v16.7H1218z"/><path id="Gap_2_" class="st9" d="M1219.4 686.2h615.3v16.7h-615.3z"/><ellipse id="Handle" class="st9" cx="1368.7" cy="734.8" rx="22.9" ry="13.9"/><ellipse id="Handle_1_" class="st9" cx="1679.7" cy="734.8" rx="22.9" ry="13.9"/><ellipse id="Handle_2_" class="st9" cx="1679.7" cy="837.8" rx="22.9" ry="13.9"/><ellipse id="Handle_3_" class="st9" cx="1368.7" cy="837.8" rx="22.9" ry="13.9"/><ellipse id="Handle_4_" class="st9" cx="1368.7" cy="948.8" rx="22.9" ry="13.9"/><ellipse id="Handle_5_" class="st9" cx="1679.7" cy="948.8" rx="22.9" ry="13.9"/></g><g id="Lamp"><path id="Foot" class="st8" d="M440.2 643.2h165.3V664H440.2z"/><path id="Straight" class="st8" d="M516.6 477.9h16.7v165.3h-16.7z"/><path id="Shielf" class="st8" d="M516.6 478s2.4-7.6 9.6-13.9c6.3-5.5 17.1-8.9 19.1-9.7 3.8-1.6 46.7-22.3 74.7 1.7 23.3 20 21.5 22.7 21.5 22.7L644 495h-12s1.8-11.6-24.3-27.4-74.4 10.4-74.4 10.4h-16.7z"/><path id="Light" class="st8" d="M637.7 491.8s17.7 2.3 25 6.6c7.3 4.3 12.7 14.6 12.7 14.6H599s6.3-6.5 13-10.6 20.3-10.4 20.3-10.4l5.4-.2z"/></g></g><g id="Computer"><path id="Connector_2_" class="st10" d="M1255.5 614h105.6v29.2h-105.6z"/><path id="Footstand" class="st10" d="M1209.7 643.2h194.4V664h-194.4z"/><path id="Frame" class="st10" d="M1079.1 447.3H1543v181.9h-463.9z"/><path id="Screen" fill="#a09f9f" d="M1102.7 463.3h416.7v148h-416.7z"/></g><g id="Chair"><path id="Back_support" class="st10" d="M1102 699H804c-41.3 0-75-33.7-75-75s33.7-75 75-75h298c41.2 0 75 33.7 75 75s-33.7 75-75 75z"/><path id="Seat" class="st10" d="M1227 858.5H773c-15.7 0-28.5-12.8-28.5-28.5s12.8-28.5 28.5-28.5h454c15.7 0 28.5 12.8 28.5 28.5s-12.8 28.5-28.5 28.5z"/><path id="XMLID_4_" class="st12" d="M946 783v64l17 16.5 27 7.3v-12.3l-16.5-6.5-10.5-16v-53z"/><path id="TopConnect" class="st12" d="M966.5 694.5H938c-6.6 0-12-5.4-12-12v-52c0-6.6 5.4-12 12-12h28.5c6.6 0 12 5.4 12 12v52c0 6.6-5.4 12-12 12z"/><path id="XMLID_1_" class="st12" d="M938 694.5h28.5v23H938z"/><path id="XMLID_3_" class="st12" d="M926 717.5h52.5v65.9H926z"/><path id="XMLID_5_" class="st12" d="M990 858.5h40V935h-40z"/><path id="XMLID_6_" class="st12" d="M978.5 935h73v88h-73z"/><path id="XMLID_7_" class="st12" d="M818 1023l61.5-23H1148l59.5 23z"/></g></svg>